<?xml version="1.0" encoding="UTF-8"?>
<svg id="Layer_2" data-name="Layer 2" xmlns="http://www.w3.org/2000/svg" viewBox="0 0 276.93 181.96">
  <defs>
    <style>
      .cls-1 {
        fill: #7e7ebb;
      }

      .cls-1, .cls-2, .cls-3, .cls-4, .cls-5, .cls-6, .cls-7, .cls-8, .cls-9, .cls-10, .cls-11, .cls-12, .cls-13, .cls-14, .cls-15 {
        stroke-width: 0px;
      }

      .cls-2 {
        fill: #f6f5fa;
      }

      .cls-3 {
        fill: #c4b8d5;
      }

      .cls-4 {
        fill: #c9b8da;
      }

      .cls-5 {
        fill: #91adda;
      }

      .cls-6 {
        fill: #b4a0bd;
      }

      .cls-7 {
        fill: #beaad2;
      }

      .cls-8 {
        fill: #a8badf;
      }

      .cls-9 {
        fill: #6e6791;
      }

      .cls-10 {
        fill: #8aa7d5;
      }

      .cls-11 {
        fill: #9388c0;
      }

      .cls-12 {
        fill: #897fbc;
      }

      .cls-13 {
        fill: #7878af;
      }

      .cls-14 {
        fill: #746eaa;
      }

      .cls-15 {
        fill: #c8b0d5;
      }
    </style>
  </defs>
  <g id="Layer_1-2" data-name="Layer 1">
    <g>
      <g>
        <path class="cls-6" d="m99.54,74.47s-4.77-33.23,3.44-43.43l14.17-18.4,18.54-8.47s15.23,1.19,15.76,2.12c.53.93,7.25,8.34,7.25,8.34,0,0-14.14-13.11-29.63.26,0,0-20.92,18.8-18.27,47l-11.25,12.58Z"/>
        <path class="cls-3" d="m135.42,102.6s-4.4,3.36-8.61,3.59c-6.37.35-35.42-9.66-26.74-37.94,2.05-6.69,6.49-12.38,20.26-7.15,0,0,13.37,9.1,14.49,14.3l.6,27.2Z"/>
        <path class="cls-7" d="m133.38,99.49s-14.68-2.66-23.05-12.57c-5.58-6.61-6.89-18.33-4.3-22.44,3.84-6.09,8.43-4.89,11.4-4.25,6.54,1.4,14.69,7.49,15.95,12.98v26.28Z"/>
        <path class="cls-13" d="m130.39,93.28s-15.52-.68-18.34-16.09c-2.48-13.53,8.02-9.83,10.79-7.94,2.66,1.81,7.22,6.36,7.88,10.19l-.33,13.84Z"/>
        <path class="cls-15" d="m99.54,42.83S118.74-1.07,144.16,6.15c5.51,1.57,21.77,14.97,19.1,47.15l3.68.93s1.99-37.36-4.5-41.99c-6.49-4.63-26.91-24.36-48.59-1.19,0,0-13.24,13.77-14.3,31.78Z"/>
        <path class="cls-1" d="m142.97,108.1s-26.75-12.34-6.27-45.02c5.54-8.85,16.4-13.17,27.82-9.46l-9.1,7.08-8.21,6.49-7.55,13.37s-.26,22.38,3.31,27.54Z"/>
        <path class="cls-2" d="m152.66,105.88s17.18-.6,23.33-19.86c0,0,1.39-5.61,0-10.67-.84-3.05-1.29-7.3-.7-11.47s4.47-26.71-3.67-43.09c0,0-6.47-17.08-30.99-20.06,0,0,21.16,12.31,23.17,32.07.68,6.67.31,24.54-.82,26.79,0,0-16.19,20.61-16.48,21.64s-4.37,16.81-4.37,16.81c0,0,2.38,7.65,10.53,7.84Z"/>
        <path class="cls-2" d="m159.81,62.49v4.37s-20.55,20.19-15.13,35.15l-7.99-3.44,1.37-14.17s1.21-6.81,3.18-8.47c0,0,6.75-13.44,12.51-15.49l6.06,2.05Z"/>
        <path class="cls-14" d="m161.68,103.34s-9.08,4.29-13.48,5.22c0,0-14.13,2.94-13.11-18.77,1.06-22.47,10.2-28.57,28.7-35.66l-.54,6.46c-.09.8-.55,1.51-1.23,1.92-5.06,3.07-28.97,18.98-17.88,37.11,3.09,5.06,6.26,5.82,17.55,3.72Z"/>
        <ellipse class="cls-12" cx="164.01" cy="87.46" rx="14.94" ry="9.06" transform="translate(11.07 193.09) rotate(-62.7)"/>
        <path class="cls-4" d="m112.71,70.37c5.23-1,11.91,5.07,13.84,14.5.53,2.59.09,7.77.09,7.77,0,0-13.13-.43-14.97-17.44,0,0-.9-4.46,1.04-4.83Z"/>
        <polygon class="cls-10" points="100.27 42.63 111.87 45.28 111.04 49.91 99.54 47.59 100.27 42.63"/>
        <polygon class="cls-8" points="98.39 47.53 99.54 47.59 100.27 42.63 98.91 42.63 98.39 47.53"/>
        <path class="cls-10" d="m162.51,26.58s10.51,1.54,12.33,3.07l1.07,5.36s-11.06-2.44-12.11-2.51l-1.3-5.92Z"/>
        <polygon class="cls-5" points="162.15 32.47 163.81 32.5 162.51 26.58 160.53 26.58 162.15 32.47"/>
      </g>
      <g>
        <g>
          <path class="cls-11" d="m.67,158.18l1.08-5.27c.75-3.57,2.16-2.38,3.1-1.36.61.76,1.97,2.38,3.57,2.38,1.93,0,2.72-2.21,2.82-7.13.19-11.55-.09-27.09-.09-29.9-.05-4.16-.23-6.54,3.05-6.54h3.57c3.33,0,3.43,4.84,3.38,8.58-.09,4.16-.09,22.51-.24,29.9-.19,12.48-4.04,20.13-11.17,20.13-4.04,0-7.18-3.23-8.5-5.18-1.41-2.12-1.03-3.48-.56-5.61Z"/>
          <path class="cls-9" d="m9.73,169.22c-3.8,0-7.06-2.85-8.71-5.29-1.41-2.13-1.09-3.57-.65-5.56l.05-.24,1.08-5.26c.33-1.54.81-2.38,1.48-2.56.74-.2,1.45.43,2.05,1.08.46.58,1.83,2.3,3.38,2.3,1.71,0,2.48-2.06,2.57-6.89.14-8.76.01-19.9-.06-25.88-.02-1.92-.04-3.34-.04-4.02v-.55c-.04-2.59-.06-4.46.92-5.46.52-.53,1.3-.78,2.38-.78h3.57c.82,0,1.52.28,2.06.83,1.52,1.54,1.61,4.94,1.57,8-.04,1.9-.07,6.68-.09,12.21-.03,6.41-.07,13.68-.14,17.69-.19,12.95-4.36,20.37-11.42,20.37Zm-6.47-18.45s-.1,0-.15.02c-.32.09-.77.54-1.12,2.18l-1.13,5.51c-.43,1.94-.72,3.22.58,5.17,1.57,2.34,4.69,5.07,8.29,5.07,6.75,0,10.73-7.25,10.92-19.88.08-4.01.11-11.27.14-17.68.03-5.53.05-10.31.09-12.21.04-2.96-.04-6.24-1.43-7.64-.45-.46-1.01-.68-1.71-.68h-3.57c-.96,0-1.6.2-2.02.63-.84.85-.82,2.63-.79,5.1v.56c0,.68.02,2.09.05,4.01.07,5.98.2,17.12.06,25.89-.1,5.24-.99,7.38-3.07,7.38-1.79,0-3.28-1.86-3.76-2.47-.38-.41-.93-.95-1.4-.95Z"/>
        </g>
        <g>
          <path class="cls-11" d="m34.76,140.52c1.69.08,3.57.85,4.65,1.44v-2.29c0-3.14-1.17-4.84-3.8-4.84-3.24,0-6.43,1.78-6.43,1.78,0,.08-2.86-8.07-.47-12.4,1.27-2.12,4.04-3.65,8.17-3.65,7.32,0,11.69,7.13,12.02,17.24.19,6.46-.24,16.99-.19,21.66,0,4.42,1.69,9.51-4.18,9.51-2.63,0-4.51-1.87-3.99-9.6h-.33s-.94,9.6-7,9.6c-4.6,0-7.7-5.69-7.98-13.67-.38-10.02,4.04-15.29,9.53-14.78Zm1.17,16.73c2.3,0,3.33-3.91,3.52-6.45v-2.63c-.33-.17-1.27-.51-2.21-.51-2.21,0-4.04,1.87-3.94,5.27,0,2.55,1.08,4.33,2.63,4.33Z"/>
          <path class="cls-9" d="m44.53,169.22c-1.16,0-2.06-.35-2.74-1.08-1.15-1.23-1.67-3.59-1.58-7.19-.56,2.78-2.26,8.27-7,8.27s-7.94-5.59-8.23-13.92c-.22-5.79,1.16-10.4,3.87-12.97,1.65-1.56,3.7-2.27,5.93-2.07,1.52.08,3.19.68,4.38,1.28v-1.88c0-3.09-1.16-4.59-3.55-4.59-3.13,0-6.28,1.73-6.31,1.75l-.18.1-.13-.15c-.05-.05-2.98-8.19-.5-12.68,1.44-2.41,4.49-3.78,8.39-3.78,7.22,0,11.92,6.7,12.27,17.48.11,3.88,0,9.2-.09,13.89-.06,3.04-.12,5.91-.1,7.77,0,.81.06,1.66.12,2.48.17,2.42.33,4.71-.95,6.08-.76.81-1.93,1.2-3.59,1.2Zm-4.55-10.1h.82l-.02.27c-.29,4.36.16,7.11,1.37,8.41.58.62,1.35.92,2.37.92,1.51,0,2.57-.34,3.22-1.05,1.13-1.21.98-3.4.82-5.71-.06-.83-.12-1.68-.12-2.51-.02-1.87.04-4.61.1-7.78.09-4.69.2-10,.09-13.87-.34-10.48-4.85-17-11.77-17-3.72,0-6.62,1.29-7.96,3.53-2.08,3.77-.06,10.54.39,11.92.84-.43,3.52-1.68,6.29-1.68s4.05,1.71,4.05,5.09v2.72l-.37-.2c-1.09-.6-2.94-1.33-4.54-1.41h-.01c-2.08-.19-4,.47-5.54,1.93-2.61,2.47-3.93,6.94-3.72,12.59.28,8.04,3.39,13.43,7.73,13.43,5.76,0,6.74-9.28,6.75-9.37l.02-.23Zm-4.05-1.62c-1.69,0-2.88-1.88-2.88-4.58-.05-1.84.44-3.34,1.42-4.35.73-.75,1.72-1.17,2.78-1.17s2.03.39,2.32.54l.14.07v2.79c-.18,2.5-1.18,6.7-3.77,6.7Zm1.31-9.6c-.94,0-1.77.35-2.42,1.02-.88.91-1.32,2.29-1.28,3.99,0,2.41.98,4.09,2.38,4.09,2.06,0,3.09-3.72,3.27-6.22v-2.46c-.36-.15-1.14-.42-1.96-.42Z"/>
        </g>
        <g>
          <path class="cls-11" d="m54.06,157.34c0-13.33.28-22.76.24-29.05,0-3.65-1.27-7.73,4.23-7.73,3.29,0,4.65,2.55,5.26,5.52.23,1.02.33,2.72.38,4.42h.33c.19-3.31,2.11-9.94,7.04-9.94,4.46,0,6.29,4.67,7.04,9.94h.38c.14-3.31,2.21-9.94,7.14-9.94,7.46,0,7.61,13.25,7.51,19.62-.14,6.96-.61,13.84-.28,22.25.19,3.82-.05,6.54-4.37,6.54-3.99,0-5.68-2.97-5.68-7.9,0-7.05.47-13.93.47-20.38,0-3.4-.52-5.86-2.49-5.86-1.08,0-1.83,1.19-2.25,2.29v3.23c-.14,6.96-.52,13.93-.38,22.34.09,3.82-.52,5.44-3.15,5.44h-3.85c-2.07,0-2.77-.85-2.77-5.61,0-5.86.33-15.37.33-21.83,0-3.4-.47-5.86-2.44-5.86-1.5,0-2.3,2.04-2.68,3.23-.14,5.69-.28,13.33-.09,18.6.05,1.7.09,3.31.19,4.42.19,3.82.09,7.05-3.15,7.05h-3.66c-2.39,0-3-2.63-3.24-5.44-.09-1.53-.05-3.48-.05-5.35Z"/>
          <path class="cls-9" d="m88.95,169.22c-3.94,0-5.93-2.74-5.93-8.15,0-3.61.12-7.19.24-10.65.12-3.39.23-6.58.23-9.73,0-3.88-.69-5.61-2.24-5.61-1.06,0-1.75,1.43-2,2.09v3.18c-.04,2.07-.1,4.13-.17,6.23-.15,5.01-.31,10.19-.21,16.11.06,2.66-.23,4.07-1.02,4.88-.53.54-1.31.81-2.38.81h-3.85c-2.37,0-3.02-1.26-3.02-5.86,0-2.86.08-6.53.16-10.41.08-3.99.17-8.11.17-11.41,0-3.93-.66-5.61-2.19-5.61-.97,0-1.79,1.02-2.43,3.02-.21,8.41-.24,14.48-.09,18.55.04,1.53.09,3.27.19,4.4.13,2.67.15,5.16-1.07,6.45-.55.58-1.33.87-2.32.87h-3.66c-2.67,0-3.27-3.03-3.49-5.66-.07-1.16-.06-2.52-.05-3.96,0-.47,0-.94,0-1.41,0-7.19.08-13.34.15-18.28.06-4.22.11-7.87.08-10.76,0-.58-.03-1.18-.06-1.75-.11-1.99-.21-3.87.92-5.06.74-.78,1.92-1.16,3.62-1.16,2.91,0,4.71,1.87,5.5,5.72.16.69.27,1.73.33,3.22.56-3.88,2.76-8.94,7.17-8.94,3.77,0,6.2,3.23,7.21,9.61.33-3.38,2.43-9.61,7.35-9.61,1.57,0,2.92.57,4.02,1.69,3.54,3.59,3.83,12.1,3.74,18.19-.04,1.96-.1,3.91-.17,5.89-.17,5.07-.35,10.31-.11,16.35.11,2.25.11,4.38-1.08,5.63-.75.78-1.9,1.17-3.54,1.17Zm-7.7-34.64c2.43,0,2.74,3.27,2.74,6.11,0,3.16-.11,6.36-.23,9.75-.12,3.46-.24,7.03-.24,10.63,0,5.08,1.83,7.65,5.43,7.65,1.49,0,2.53-.33,3.17-1.01,1.05-1.11,1.05-3.12.94-5.27-.24-6.06-.06-11.31.11-16.39.07-1.98.13-3.92.17-5.88.09-6-.19-14.37-3.6-17.83-1-1.02-2.24-1.54-3.67-1.54-4.84,0-6.76,6.66-6.89,9.7v.24h-.84l-.03-.21c-.93-6.54-3.16-9.72-6.79-9.72-4.72,0-6.61,6.54-6.79,9.7v.24h-.82v-.24c-.04-1.35-.12-3.27-.38-4.37-.74-3.59-2.38-5.33-5.02-5.33-1.55,0-2.62.33-3.26,1-.98,1.04-.89,2.81-.78,4.69.03.58.06,1.19.06,1.78.02,2.9-.03,6.55-.08,10.77-.07,4.94-.15,11.09-.15,18.28,0,.47,0,.94,0,1.41,0,1.43-.02,2.79.05,3.92.3,3.64,1.2,5.2,2.99,5.2h3.66c.86,0,1.5-.23,1.96-.72,1.08-1.14,1.06-3.62.94-6.07-.1-1.14-.15-2.88-.19-4.42-.15-4.08-.11-10.17.09-18.61v-.07c.73-2.26,1.71-3.4,2.93-3.4,2.37,0,2.69,3.09,2.69,6.11,0,3.31-.09,7.43-.17,11.43-.08,3.88-.16,7.54-.16,10.4,0,4.85.77,5.36,2.52,5.36h3.85c.94,0,1.58-.21,2.02-.66.69-.7.94-2.01.88-4.52-.1-5.93.06-11.12.21-16.13.06-2.1.13-4.16.17-6.22l.02-3.31c.35-.92,1.14-2.45,2.49-2.45Z"/>
        </g>
        <g>
          <path class="cls-11" d="m98.76,157.34c0-13.33.28-22.76.24-29.05,0-3.65-1.27-7.73,4.23-7.73,3.29,0,4.65,2.55,5.26,5.52.23,1.02.33,2.72.38,4.42h.33c.19-3.31,2.11-9.94,7.04-9.94,4.46,0,6.29,4.67,7.04,9.94h.38c.14-3.31,2.21-9.94,7.14-9.94,7.46,0,7.61,13.25,7.51,19.62-.14,6.96-.61,13.84-.28,22.25.19,3.82-.05,6.54-4.37,6.54-3.99,0-5.68-2.97-5.68-7.9,0-7.05.47-13.93.47-20.38,0-3.4-.52-5.86-2.49-5.86-1.08,0-1.83,1.19-2.25,2.29v3.23c-.14,6.96-.52,13.93-.38,22.34.09,3.82-.52,5.44-3.15,5.44h-3.85c-2.07,0-2.77-.85-2.77-5.61,0-5.86.33-15.37.33-21.83,0-3.4-.47-5.86-2.44-5.86-1.5,0-2.3,2.04-2.68,3.23-.14,5.69-.28,13.33-.09,18.6.05,1.7.09,3.31.19,4.42.19,3.82.09,7.05-3.15,7.05h-3.66c-2.39,0-3-2.63-3.24-5.44-.09-1.53-.05-3.48-.05-5.35Z"/>
          <path class="cls-9" d="m133.65,169.22c-3.94,0-5.93-2.74-5.93-8.15,0-3.61.12-7.19.24-10.65.12-3.39.23-6.58.23-9.73,0-3.88-.69-5.61-2.24-5.61-1.06,0-1.75,1.43-2,2.09v3.18c-.04,2.07-.1,4.13-.17,6.23-.15,5.01-.31,10.19-.21,16.11.06,2.66-.23,4.07-1.02,4.88-.53.54-1.31.81-2.38.81h-3.85c-2.37,0-3.02-1.26-3.02-5.86,0-2.86.08-6.53.16-10.41.08-3.99.17-8.11.17-11.41,0-3.93-.66-5.61-2.19-5.61-.97,0-1.79,1.02-2.43,3.02-.21,8.41-.24,14.48-.09,18.55.04,1.53.09,3.27.19,4.4.13,2.67.15,5.16-1.07,6.45-.55.58-1.33.87-2.32.87h-3.66c-2.67,0-3.27-3.03-3.49-5.66-.07-1.16-.06-2.52-.05-3.96,0-.47,0-.94,0-1.41,0-7.19.08-13.34.15-18.28.06-4.22.11-7.87.08-10.76,0-.58-.03-1.18-.06-1.75-.11-1.99-.21-3.87.92-5.06.74-.78,1.92-1.16,3.62-1.16,2.91,0,4.71,1.87,5.5,5.72.16.69.27,1.73.33,3.22.56-3.88,2.76-8.94,7.17-8.94,3.77,0,6.2,3.23,7.21,9.61.33-3.38,2.43-9.61,7.35-9.61,1.57,0,2.92.57,4.02,1.69,3.54,3.59,3.83,12.1,3.74,18.19-.04,1.96-.1,3.91-.17,5.89-.17,5.07-.35,10.31-.11,16.35.11,2.25.11,4.38-1.08,5.63-.75.78-1.9,1.17-3.54,1.17Zm-7.7-34.64c2.43,0,2.74,3.27,2.74,6.11,0,3.16-.11,6.36-.23,9.75-.12,3.46-.24,7.03-.24,10.63,0,5.08,1.83,7.65,5.43,7.65,1.49,0,2.53-.33,3.17-1.01,1.05-1.11,1.05-3.12.94-5.27-.24-6.06-.06-11.31.11-16.39.07-1.98.13-3.92.17-5.88.09-6-.19-14.37-3.6-17.83-1-1.02-2.24-1.54-3.67-1.54-4.84,0-6.76,6.66-6.89,9.7v.24h-.84l-.03-.21c-.93-6.54-3.16-9.72-6.79-9.72-4.72,0-6.61,6.54-6.79,9.7v.24h-.82v-.24c-.04-1.35-.12-3.27-.38-4.37-.74-3.59-2.38-5.33-5.02-5.33-1.55,0-2.62.33-3.26,1-.98,1.04-.89,2.81-.78,4.69.03.58.06,1.19.06,1.78.02,2.9-.03,6.55-.08,10.77-.07,4.94-.15,11.09-.15,18.28,0,.47,0,.94,0,1.41,0,1.43-.02,2.79.05,3.92.3,3.64,1.2,5.2,2.99,5.2h3.66c.86,0,1.5-.23,1.96-.72,1.08-1.14,1.06-3.62.94-6.07-.1-1.14-.15-2.88-.19-4.42-.15-4.08-.11-10.17.09-18.61v-.07c.73-2.26,1.71-3.4,2.93-3.4,2.37,0,2.69,3.09,2.69,6.11,0,3.31-.09,7.43-.17,11.43-.08,3.88-.16,7.54-.16,10.4,0,4.85.77,5.36,2.52,5.36h3.85c.94,0,1.58-.21,2.02-.66.69-.7.94-2.01.88-4.52-.1-5.93.06-11.12.21-16.13.06-2.1.13-4.16.17-6.22l.02-3.31c.35-.92,1.14-2.45,2.49-2.45Z"/>
        </g>
        <g>
          <path class="cls-11" d="m143.46,157.34c0-13.33.28-22.76.24-29.05,0-3.65-1.27-7.73,4.23-7.73,3.29,0,4.65,2.55,5.26,5.52.23,1.02.33,2.72.38,4.42h.33c.19-3.31,2.11-9.94,7.04-9.94,4.46,0,6.29,4.67,7.04,9.94h.38c.14-3.31,2.21-9.94,7.14-9.94,7.46,0,7.61,13.25,7.51,19.62-.14,6.96-.61,13.84-.28,22.25.19,3.82-.05,6.54-4.37,6.54-3.99,0-5.68-2.97-5.68-7.9,0-7.05.47-13.93.47-20.38,0-3.4-.52-5.86-2.49-5.86-1.08,0-1.83,1.19-2.25,2.29v3.23c-.14,6.96-.52,13.93-.38,22.34.09,3.82-.52,5.44-3.15,5.44h-3.85c-2.07,0-2.77-.85-2.77-5.61,0-5.86.33-15.37.33-21.83,0-3.4-.47-5.86-2.44-5.86-1.5,0-2.3,2.04-2.68,3.23-.14,5.69-.28,13.33-.09,18.6.05,1.7.09,3.31.19,4.42.19,3.82.09,7.05-3.15,7.05h-3.66c-2.39,0-3-2.63-3.24-5.44-.09-1.53-.05-3.48-.05-5.35Z"/>
          <path class="cls-9" d="m178.35,169.22c-3.94,0-5.93-2.74-5.93-8.15,0-3.61.12-7.19.24-10.65.12-3.39.23-6.58.23-9.73,0-3.88-.69-5.61-2.24-5.61-1.06,0-1.75,1.43-2,2.09v3.18c-.04,2.07-.1,4.13-.17,6.23-.15,5.01-.31,10.19-.21,16.11.07,2.66-.23,4.07-1.02,4.88-.53.54-1.31.81-2.38.81h-3.85c-2.37,0-3.02-1.26-3.02-5.86,0-2.86.08-6.53.16-10.41.08-3.99.17-8.11.17-11.41,0-3.93-.66-5.61-2.19-5.61-.97,0-1.79,1.02-2.43,3.02-.21,8.41-.24,14.48-.09,18.55.04,1.53.09,3.27.19,4.4.13,2.67.15,5.16-1.07,6.45-.55.58-1.33.87-2.32.87h-3.66c-2.67,0-3.27-3.03-3.49-5.66-.07-1.16-.06-2.52-.05-3.96,0-.47,0-.94,0-1.41,0-7.19.08-13.34.15-18.28.06-4.22.11-7.87.08-10.76,0-.58-.03-1.18-.06-1.75-.11-1.99-.21-3.87.92-5.06.74-.78,1.92-1.16,3.62-1.16,2.91,0,4.71,1.87,5.5,5.72.16.69.27,1.73.33,3.22.56-3.88,2.76-8.94,7.17-8.94,3.77,0,6.2,3.23,7.21,9.61.33-3.38,2.43-9.61,7.35-9.61,1.57,0,2.92.57,4.02,1.69,3.54,3.59,3.83,12.1,3.74,18.19-.04,1.96-.11,3.91-.17,5.89-.17,5.07-.35,10.31-.11,16.35.11,2.25.11,4.38-1.08,5.63-.75.78-1.9,1.17-3.54,1.17Zm-7.7-34.64c2.43,0,2.74,3.27,2.74,6.11,0,3.16-.11,6.36-.23,9.75-.12,3.46-.24,7.03-.24,10.63,0,5.08,1.83,7.65,5.43,7.65,1.49,0,2.53-.33,3.17-1.01,1.05-1.11,1.05-3.12.94-5.27-.24-6.06-.06-11.31.11-16.39.07-1.98.13-3.92.17-5.88.09-6-.19-14.37-3.6-17.83-1-1.02-2.24-1.54-3.67-1.54-4.84,0-6.76,6.66-6.89,9.7v.24h-.84l-.03-.21c-.93-6.54-3.16-9.72-6.79-9.72-4.72,0-6.61,6.54-6.79,9.7v.24h-.82v-.24c-.04-1.35-.12-3.27-.38-4.37-.74-3.59-2.38-5.33-5.02-5.33-1.55,0-2.62.33-3.26,1-.98,1.04-.89,2.81-.78,4.69.03.58.06,1.19.06,1.78.02,2.9-.03,6.55-.08,10.77-.07,4.94-.15,11.09-.15,18.28,0,.47,0,.94,0,1.41,0,1.43-.02,2.79.05,3.92.3,3.64,1.2,5.2,2.99,5.2h3.66c.86,0,1.5-.23,1.96-.72,1.08-1.14,1.06-3.62.94-6.07-.1-1.14-.14-2.88-.19-4.42-.15-4.08-.11-10.17.09-18.61v-.07c.73-2.26,1.71-3.4,2.93-3.4,2.37,0,2.69,3.09,2.69,6.11,0,3.31-.09,7.43-.17,11.43-.08,3.88-.16,7.54-.16,10.4,0,4.85.77,5.36,2.52,5.36h3.85c.94,0,1.58-.21,2.02-.66.68-.7.94-2.01.88-4.52-.1-5.93.06-11.12.21-16.13.06-2.1.12-4.16.17-6.22l.02-3.31c.35-.92,1.14-2.45,2.49-2.45Z"/>
        </g>
        <g>
          <path class="cls-11" d="m188.45,157.34c.23-13.33.23-21.06.23-28.2,0-3.65-1.22-7.73,4.23-7.73,4.18,0,5.87,1.78,5.73,8.07-.14,9.26-.52,20.13-.28,27.18,0,1.7.09,3.31.19,4.42.23,3.82.09,7.05-3.15,7.05h-3.66c-2.39,0-3-2.63-3.19-5.44-.14-1.53-.09-3.48-.09-5.35Zm.28-46.29c-.09-5.95,2.02-6.62,4.7-6.62s4.74.68,4.88,6.62c.05,5.86-2.07,6.45-4.65,6.45-2.72,0-4.84-.59-4.93-6.45Z"/>
          <path class="cls-9" d="m195.39,168.37h-3.66c-2.71,0-3.27-3.03-3.44-5.67-.11-1.23-.11-2.76-.1-4.24v-1.13c.24-13.33.24-21.23.24-28.19,0-.57-.03-1.15-.06-1.72-.1-2.01-.2-3.91.94-5.11.74-.78,1.92-1.16,3.6-1.16,2.07,0,3.41.43,4.35,1.38,1.21,1.24,1.71,3.38,1.63,6.94-.04,2.55-.1,5.22-.15,7.9-.15,6.96-.3,14.16-.13,19.26,0,1.91.12,3.58.19,4.4.15,2.42.2,5.1-1.05,6.43-.56.59-1.35.89-2.35.89Zm-6.7-11.03v1.13c-.01,1.47-.02,2.99.09,4.2.24,3.6,1.15,5.21,2.94,5.21h3.66c.87,0,1.52-.24,1.99-.74,1.11-1.18,1.05-3.74.91-6.05-.07-.83-.19-2.51-.19-4.43-.17-5.11-.02-12.31.13-19.28.06-2.68.11-5.35.15-7.9.08-3.42-.38-5.45-1.49-6.58-.83-.85-2.06-1.23-3.99-1.23-1.54,0-2.59.33-3.23,1-.99,1.04-.9,2.84-.8,4.73.03.57.06,1.16.06,1.74,0,6.97,0,14.86-.23,28.2Zm4.96-39.58c-2.67,0-5.08-.51-5.18-6.7h0c-.05-2.9.41-4.74,1.44-5.78.95-.96,2.25-1.1,3.51-1.1,3.07,0,5,1.15,5.13,6.87.02,2.83-.44,4.63-1.45,5.64-.93.94-2.21,1.07-3.45,1.07Zm-4.68-6.71c.09,5.75,2.09,6.21,4.68,6.21,1.31,0,2.34-.16,3.1-.92.9-.9,1.32-2.63,1.3-5.28-.14-5.9-2.18-6.38-4.63-6.38-1.15,0-2.33.11-3.15.95-.91.93-1.34,2.7-1.29,5.42h0Z"/>
        </g>
        <g>
          <path class="cls-11" d="m204.32,157.34c.24-13.33.28-22.76.24-29.05,0-3.65-1.27-7.73,4.23-7.73,3.29,0,4.65,2.55,5.26,5.52.28,1.27.42,2.72.42,4.42h.33c.19-3.31,2.49-9.94,7.46-9.94,7.37,0,7.65,13.25,7.61,19.62-.09,6.96-.7,13.93-.33,22.34.19,3.74-.05,6.45-4.37,6.45-3.99,0-5.73-3.23-5.73-8.15,0-7.13.56-13.67.56-20.13,0-3.4-.85-5.86-2.82-5.86-1.55,0-2.44,2.29-2.91,3.4-.09,5.86-.19,13.42-.05,18.43.05,1.7.09,3.31.19,4.42.19,3.82.09,7.05-3.15,7.05h-3.66c-2.39,0-3-2.63-3.24-5.44-.09-1.53-.05-3.48-.05-5.35Z"/>
          <path class="cls-9" d="m225.16,169.22c-3.85,0-5.98-2.98-5.98-8.4,0-3.66.15-7.18.29-10.58.14-3.29.27-6.41.27-9.55,0-1.69-.25-5.61-2.57-5.61-1.31,0-2.16,2-2.61,3.08l-.05.12c-.09,5.95-.19,13.4-.05,18.37.04,1.53.09,3.26.19,4.4.13,2.67.15,5.16-1.07,6.45-.55.58-1.33.87-2.32.87h-3.66c-2.67,0-3.27-3.03-3.49-5.66-.07-1.16-.06-2.52-.05-3.96,0-.47,0-.94,0-1.41h0c.21-11.78.29-21.82.24-29.04,0-.58-.03-1.18-.06-1.75-.11-1.99-.21-3.87.92-5.06.74-.78,1.92-1.16,3.62-1.16,2.91,0,4.71,1.87,5.5,5.72.21.97.35,2.03.4,3.22.62-3.66,3.07-8.94,7.57-8.94,1.54,0,2.87.56,3.97,1.66,3.58,3.6,3.93,12.12,3.89,18.21-.03,2.31-.12,4.59-.21,6.99-.18,4.78-.37,9.72-.12,15.33.11,2.21.11,4.3-1.07,5.55-.75.79-1.91,1.17-3.54,1.17Zm-7.98-34.64c1.98,0,3.07,2.17,3.07,6.11,0,3.15-.13,6.27-.27,9.57-.14,3.4-.29,6.91-.29,10.56s.95,7.9,5.48,7.9c1.49,0,2.53-.33,3.18-1.01.95-1,1.06-2.65.93-5.18-.25-5.63-.06-10.58.12-15.37.09-2.4.18-4.67.21-6.98.03-3.46.1-13.98-3.74-17.85-1-1.01-2.21-1.52-3.62-1.52-4.71,0-7.02,6.32-7.21,9.7v.24h-.83v-.25c0-1.67-.14-3.09-.42-4.36-.74-3.58-2.38-5.32-5.01-5.32-1.55,0-2.62.33-3.26,1-.98,1.04-.88,2.81-.78,4.69.03.58.06,1.19.06,1.78.05,7.23-.03,17.27-.24,29.05,0,.47,0,.94,0,1.41,0,1.43-.02,2.79.05,3.92.3,3.64,1.2,5.2,2.99,5.2h3.66c.86,0,1.5-.23,1.96-.72,1.08-1.14,1.06-3.62.94-6.07-.1-1.14-.14-2.88-.19-4.42-.14-4.99-.05-12.48.05-18.44l.02-.09.07-.16c.5-1.18,1.43-3.39,3.07-3.39Z"/>
        </g>
        <g>
          <path class="cls-11" d="m239.25,165.74v-.42s-3.1-.42-3.1-6.62c0-8.24,5.12-7.64,5.12-7.64v-.42s-7.28-1.36-7.37-13.16c-.09-8.66,2.49-16.9,12.82-16.9h13.29s2.02,10.36-2.44,10.36c-1.27.08-2.3-.17-3.29-.51l-.05.51c1.41.93,3.43,3.65,3.47,9.09.05,9.51-4.88,12.65-11.78,12.65-1.22,0-1.78.59-1.78,1.78s.52,1.95,1.78,1.95c.8,0,5.16-.25,6.29-.25,4.7,0,8.12,3.57,8.12,11.21,0,8.58-4.6,14.35-13.43,14.35-7.42,0-12.68-2.29-12.72-9.26-.09-7.13,5.07-6.71,5.07-6.71Zm10.42-28.79c0-2.89-1.08-5.44-3.38-5.44-3.85,0-4.37,3.14-4.32,5.61.09,3.14,1.17,4.93,3.52,4.93,3.29,0,4.18-2.63,4.18-5.1Zm-2.77,36.44c3.05,0,4.18-1.7,4.18-3.74,0-1.1-.33-2.12-2.02-2.29-.94-.08-2.49,0-3.47,0-1.6,0-2.3,0-2.63-.08-.14.42-.47,1.19-.47,2.12,0,2.38,1.13,3.99,4.41,3.99Z"/>
          <path class="cls-9" d="m246.9,181.96c-8.69,0-12.93-3.11-12.97-9.51-.03-2.57.6-4.49,1.88-5.68,1.15-1.07,2.49-1.26,3.11-1.28-.82-.28-3.02-1.51-3.02-6.8,0-3.18.75-5.45,2.22-6.76,1.07-.95,2.23-1.12,2.81-1.14-1.39-.43-7.19-2.83-7.28-13.33-.07-6.37,1.32-11.04,4.12-13.87,2.15-2.18,5.16-3.28,8.94-3.28h13.49l.04.2c.06.29,1.38,7.21-.71,9.73-.51.62-1.17.93-1.98.93-1.21.08-2.22-.15-3.07-.42v.05c1.66,1.19,3.41,4.2,3.46,9.21.02,4.43-1.05,7.75-3.17,9.89-1.99,2-4.97,3.02-8.86,3.02-1.06,0-1.53.47-1.53,1.53,0,1.15.5,1.7,1.53,1.7.36,0,1.48-.05,2.67-.11,1.41-.07,3.01-.14,3.62-.14,5.24,0,8.37,4.28,8.37,11.46,0,9.14-5.11,14.6-13.68,14.6Zm-7.8-15.97c-.43,0-1.82.09-2.95,1.15-1.17,1.1-1.75,2.88-1.72,5.31.04,6.06,4.12,9.01,12.47,9.01s13.18-5.27,13.18-14.1c0-6.97-2.87-10.96-7.87-10.96-.61,0-2.2.08-3.6.14-1.19.06-2.32.11-2.69.11-1.31,0-2.03-.78-2.03-2.2s.68-2.03,2.03-2.03c3.75,0,6.61-.96,8.51-2.87,2.03-2.04,3.05-5.25,3.03-9.53-.04-4.93-1.76-7.82-3.36-8.88l-.12-.08.09-.97.3.1c.85.29,1.89.58,3.19.5.68,0,1.2-.24,1.61-.75,1.75-2.12.84-7.95.64-9.12h-13.08c-3.64,0-6.53,1.05-8.59,3.13-2.71,2.74-4.05,7.29-3.98,13.52.09,11.44,7.1,12.91,7.17,12.92l.2.04v.91l-.28-.03s-1.5-.15-2.8,1.01c-1.35,1.21-2.04,3.36-2.04,6.38,0,5.87,2.86,6.37,2.88,6.38l.21.03v.91s-.27-.02-.27-.02c0,0-.05,0-.13,0Zm7.8,7.65c-3.09,0-4.66-1.43-4.66-4.24,0-.84.25-1.54.41-2l.14-.42.23.06c.3.08,1.06.08,2.57.08.31,0,.68,0,1.06-.02.83-.02,1.78-.04,2.44.02,2.01.2,2.25,1.55,2.25,2.54,0,2.53-1.61,3.99-4.43,3.99Zm-3.78-6.08h0c-.15.43-.38,1.08-.38,1.84,0,2.55,1.32,3.74,4.16,3.74,3.42,0,3.93-2.18,3.93-3.49,0-.97-.22-1.89-1.79-2.04-.62-.06-1.55-.04-2.38-.02-2.07.05-3.04.03-3.54-.03Zm2.37-25.26c-2.4,0-3.67-1.74-3.77-5.17-.04-2.19.4-3.73,1.35-4.69.76-.77,1.84-1.17,3.22-1.17,2.21,0,3.63,2.23,3.63,5.69s-1.61,5.35-4.43,5.35Zm.8-10.53c-1.24,0-2.2.34-2.86,1.02-.85.87-1.25,2.29-1.21,4.33.09,3.15,1.16,4.68,3.27,4.68,3.42,0,3.93-3.04,3.93-4.85,0-2.39-.82-5.19-3.13-5.19Z"/>
        </g>
        <g>
          <path class="cls-11" d="m265.36,119.29c.05-4.42,1.36-9.77,5.35-9.77,3.76,0,6.06,4.76,5.96,11.98-.14,9.77-3.76,18.85-5.63,23.44l-1.5-.68c-.52-7.98-4.27-18.18-4.18-24.97Zm5.02,33.63c2.68,0,5.02.85,5.12,8.15,0,7.13-2.21,7.9-4.93,7.9s-5.07-.76-5.07-7.9c-.14-7.3,2.07-8.15,4.88-8.15Z"/>
          <path class="cls-9" d="m270.57,169.22c-3.28,0-5.32-1.36-5.32-8.15-.07-3.74.45-6.05,1.65-7.27.98-1,2.31-1.13,3.48-1.13,3.16,0,5.28,1.43,5.37,8.4,0,7.52-2.56,8.15-5.18,8.15Zm-.19-16.05c-1.12,0-2.28.12-3.13.98-1.08,1.1-1.57,3.36-1.51,6.91,0,7.07,2.28,7.65,4.82,7.65s4.68-.58,4.68-7.65c-.09-7.29-2.46-7.9-4.87-7.9Zm.79-7.9l-1.88-.85v-.15c-.25-3.74-1.21-8-2.15-12.12-1.08-4.75-2.09-9.25-2.04-12.87.05-4.84,1.55-10.01,5.6-10.01,1.24,0,2.34.48,3.27,1.43,1.96,1.99,3,5.82,2.94,10.8-.15,10.08-4.01,19.51-5.65,23.53l-.1.24Zm-1.4-1.18l1.13.51c1.69-4.12,5.38-13.32,5.52-23.11.06-4.77-.96-8.58-2.79-10.44-.84-.85-1.82-1.28-2.92-1.28-3.69,0-5.05,4.92-5.1,9.52h0c-.05,3.57.96,8.03,2.03,12.76.92,4.08,1.88,8.31,2.14,12.05Z"/>
        </g>
      </g>
    </g>
  </g>
</svg>