<?xml version="1.0" encoding="UTF-8"?>
<svg id="Layer_2" data-name="Layer 2" xmlns="http://www.w3.org/2000/svg" viewBox="0 0 66.76 21.89">
  <defs>
    <style>
      .cls-1 {
        fill: #fff;
      }

      .cls-1, .cls-2 {
        stroke-width: 0px;
      }

      .cls-2 {
        fill: #2eb454;
      }
    </style>
  </defs>
  <g id="Layer_1-2" data-name="Layer 1">
    <g>
      <circle class="cls-2" cx="10.94" cy="10.94" r="10.94"/>
      <g>
        <path class="cls-1" d="m17.15,9.49c-.16,0-.33-.04-.48-.13-2.37-1.44-5.4-1.65-7.53-1.56-2.36.09-4.17.55-4.18.55-.49.13-1-.17-1.13-.67-.13-.49.17-1,.66-1.13.08-.02,1.98-.51,4.53-.61,1.51-.06,2.93.02,4.23.25,1.66.29,3.13.82,4.37,1.58.44.27.58.84.31,1.27-.17.29-.48.45-.79.45Z"/>
        <path class="cls-1" d="m15.74,12.62c-.13,0-.27-.04-.39-.11-3.77-2.29-9.55-.84-9.61-.83-.4.1-.82-.14-.92-.54-.1-.4.14-.82.54-.92.07-.02,1.63-.42,3.72-.5,1.24-.05,2.41.02,3.47.21,1.36.24,2.57.68,3.58,1.29.36.22.47.68.25,1.04-.14.23-.39.36-.65.36Z"/>
        <path class="cls-1" d="m14.63,15.63c-.1,0-.21-.03-.31-.09-3.19-1.94-8.07-.72-8.12-.7-.32.08-.64-.11-.72-.42-.08-.31.11-.64.42-.72.05-.01,1.36-.35,3.12-.42,2.39-.1,4.38.33,5.91,1.26.28.17.37.53.2.81-.11.18-.31.28-.5.28Z"/>
      </g>
    </g>
    <g>
      <path class="cls-2" d="m31.6,13.89c-.17.36-.4.65-.69.9-.3.24-.65.43-1.06.55-.41.13-.87.19-1.37.19-.7,0-1.39-.12-2.07-.36-.68-.24-1.29-.61-1.84-1.11l1.2-1.43c.42.34.85.61,1.3.82.44.2.93.3,1.45.3.42,0,.75-.08.98-.23.23-.15.35-.37.35-.64v-.03c0-.13-.02-.25-.07-.35-.05-.1-.14-.2-.28-.28-.14-.09-.33-.18-.57-.26-.24-.09-.56-.18-.94-.28-.47-.11-.89-.24-1.27-.38-.38-.14-.7-.31-.96-.52-.26-.21-.47-.46-.61-.77-.15-.31-.22-.69-.22-1.15v-.03c0-.42.08-.8.24-1.14.16-.34.38-.63.66-.88.28-.25.62-.43,1.02-.57.39-.13.83-.2,1.3-.2.68,0,1.3.1,1.86.3.57.2,1.09.49,1.56.87l-1.05,1.53c-.41-.28-.82-.5-1.21-.66-.39-.16-.79-.24-1.18-.24s-.69.08-.89.23c-.2.15-.3.34-.3.57v.03c0,.15.03.28.09.39.06.11.16.21.31.3.15.09.35.17.61.25s.59.17.98.28c.47.12.88.26,1.25.41.37.15.67.34.92.55.25.22.44.47.57.76.13.29.19.64.19,1.04v.03c0,.46-.08.86-.25,1.22Z"/>
      <path class="cls-2" d="m39.64,13.44c-.18.45-.42.83-.71,1.15-.29.31-.63.55-1.02.7-.39.16-.79.24-1.21.24-.54,0-.98-.1-1.32-.31-.35-.21-.64-.45-.88-.73v3.02h-2v-9.16h2v1c.25-.33.54-.6.89-.82.35-.21.78-.32,1.31-.32.41,0,.81.08,1.2.24.39.16.73.39,1.03.7.3.31.54.69.72,1.15.18.45.27.97.27,1.56v.03c0,.59-.09,1.11-.27,1.56Zm-1.73-1.59c0-.29-.05-.56-.14-.8s-.22-.45-.38-.62-.34-.3-.55-.4c-.21-.09-.43-.14-.66-.14s-.46.05-.66.14c-.21.09-.39.23-.54.4-.15.17-.28.38-.37.62s-.14.51-.14.8v.03c0,.29.05.56.14.8s.21.45.37.62c.15.17.33.3.54.4.21.09.43.14.66.14s.46-.05.66-.14c.21-.09.39-.23.55-.4s.28-.38.38-.62c.09-.24.14-.51.14-.81v-.03Z"/>
      <path class="cls-2" d="m47.48,13.31c-.19.44-.46.83-.8,1.16-.34.33-.75.6-1.21.79-.47.19-.97.29-1.53.29s-1.05-.09-1.51-.28c-.47-.19-.87-.45-1.2-.78-.34-.33-.6-.72-.8-1.16-.19-.44-.29-.92-.29-1.43v-.03c0-.51.1-.98.29-1.43.19-.44.46-.83.8-1.16.34-.33.75-.6,1.21-.79.47-.19.97-.29,1.53-.29s1.05.09,1.51.28c.47.19.87.45,1.2.78.34.33.6.72.8,1.16.19.44.29.92.29,1.43v.03c0,.51-.1.99-.29,1.43Zm-1.68-1.43c0-.26-.04-.51-.13-.74-.09-.23-.22-.44-.38-.62-.17-.18-.36-.32-.59-.43-.23-.11-.48-.16-.75-.16-.29,0-.55.05-.77.15-.22.1-.41.24-.57.41-.16.18-.28.38-.36.61-.08.23-.13.48-.13.74v.03c0,.26.04.51.13.74.09.23.21.44.38.62.17.18.36.32.59.43.22.11.48.16.76.16s.55-.05.77-.15c.22-.1.41-.24.57-.41.16-.18.28-.38.36-.61.08-.23.13-.48.13-.74v-.03Z"/>
      <path class="cls-2" d="m51.57,15.41c-.25.07-.55.11-.88.11-.31,0-.59-.03-.84-.1-.25-.07-.47-.18-.64-.35-.18-.17-.32-.38-.42-.65-.1-.27-.15-.61-.15-1.02v-3.34h-.84v-1.71h.84v-1.8h2v1.8h1.66v1.71h-1.66v3.01c0,.46.21.68.64.68.35,0,.68-.08.99-.25v1.61c-.21.12-.44.22-.7.3Z"/>
      <path class="cls-2" d="m52.9,7.57v-1.78h2.11v1.78h-2.11Zm.05,7.83v-7.06h2v7.06h-2Z"/>
      <path class="cls-2" d="m59.44,7.43c-.14-.03-.3-.05-.47-.05-.48,0-.72.25-.72.76v.28h1.62v1.63h-1.59v5.34h-2v-5.34h-.83v-1.65h.83v-.45c0-.78.19-1.35.56-1.72.37-.36.91-.55,1.63-.55.32,0,.59.02.81.05.22.04.43.08.61.14v1.66c-.15-.05-.29-.09-.43-.13Z"/>
      <path class="cls-2" d="m64.05,15.57c-.13.36-.27.66-.42.91-.15.25-.31.45-.49.61-.18.16-.38.27-.61.34-.23.07-.49.11-.79.11-.37,0-.69-.04-.97-.13-.28-.09-.55-.21-.8-.36l.67-1.45c.13.08.27.14.43.2.15.05.3.08.43.08.18,0,.31-.03.41-.1.1-.07.2-.19.28-.36l-2.76-7.08h2.12l1.61,4.8,1.54-4.8h2.08l-2.71,7.23Z"/>
    </g>
  </g>
</svg>