<?xml version="1.0" encoding="UTF-8"?>
<svg id="Layer_2" data-name="Layer 2" xmlns="http://www.w3.org/2000/svg" viewBox="0 0 21.89 21.89">
  <defs>
    <style>
      .cls-1 {
        fill: #fff;
      }

      .cls-1, .cls-2 {
        stroke-width: 0px;
      }

      .cls-2 {
        fill: #2eb454;
      }
    </style>
  </defs>
  <g id="Layer_1-2" data-name="Layer 1">
    <g>
      <circle class="cls-2" cx="10.94" cy="10.94" r="10.94"/>
      <g>
        <path class="cls-1" d="m17.15,9.49c-.16,0-.33-.04-.48-.13-2.37-1.44-5.4-1.65-7.53-1.56-2.36.09-4.17.55-4.18.55-.49.13-1-.17-1.13-.67-.13-.49.17-1,.66-1.13.08-.02,1.98-.51,4.53-.61,1.51-.06,2.93.02,4.23.25,1.66.29,3.13.82,4.37,1.58.44.27.58.84.31,1.27-.17.29-.48.45-.79.45Z"/>
        <path class="cls-1" d="m15.74,12.62c-.13,0-.27-.04-.39-.11-3.77-2.29-9.55-.84-9.61-.83-.4.1-.82-.14-.92-.54-.1-.4.14-.82.54-.92.07-.02,1.63-.42,3.72-.5,1.24-.05,2.41.02,3.47.21,1.36.24,2.57.68,3.58,1.29.36.22.47.68.25,1.04-.14.23-.39.36-.65.36Z"/>
        <path class="cls-1" d="m14.63,15.63c-.1,0-.21-.03-.31-.09-3.19-1.94-8.07-.72-8.12-.7-.32.08-.64-.11-.72-.42-.08-.31.11-.64.42-.72.05-.01,1.36-.35,3.12-.42,2.39-.1,4.38.33,5.91,1.26.28.17.37.53.2.81-.11.18-.31.28-.5.28Z"/>
      </g>
    </g>
  </g>
</svg>